<?xml version="1.0" standalone="no"?><!DOCTYPE svg PUBLIC "-//W3C//DTD SVG 1.1//EN" "http://www.w3.org/Graphics/SVG/1.1/DTD/svg11.dtd"><svg t="1593355891263" class="icon" viewBox="0 0 1024 1024" version="1.1" xmlns="http://www.w3.org/2000/svg" p-id="2562" xmlns:xlink="http://www.w3.org/1999/xlink" width="200" height="200"><defs><style type="text/css"></style></defs><path d="M512 1024a512 512 0 1 1 512-512 512.576 512.576 0 0 1-512 512z m0-960a448 448 0 1 0 448 448A448.512 448.512 0 0 0 512 64z m182.624 630.624a32 32 0 0 1-45.248 0L512 557.248l-137.376 137.376a32 32 0 0 1-45.248-45.248L466.752 512l-137.376-137.376a32 32 0 0 1 45.248-45.248L512 466.752l137.376-137.376a32 32 0 0 1 45.248 45.248L557.248 512l137.376 137.376a32 32 0 0 1 0 45.248z" p-id="2563" fill="#333"></path></svg>