<?xml version="1.0" standalone="no"?><!DOCTYPE svg PUBLIC "-//W3C//DTD SVG 1.1//EN" "http://www.w3.org/Graphics/SVG/1.1/DTD/svg11.dtd"><svg t="1594371874569" class="icon" viewBox="0 0 1024 1024" version="1.1" xmlns="http://www.w3.org/2000/svg" p-id="12612" xmlns:xlink="http://www.w3.org/1999/xlink" width="200" height="200"><defs><style type="text/css"></style></defs><path d="M120 512c0-102 37.2-195.8 108-271.2 10.6-11.4 10.4-29.6-0.8-40.6-5.2-5.2-12.2-8.2-19.4-8.2-7.6 0-14.8 3.2-20.2 8.8C106.6 287.4 64 394.8 64 512c0 117 42.6 224.6 123.4 311 5.4 5.8 12.6 9 20.4 9 7.2 0 14.2-2.8 19.4-7.8 5.4-5.2 8.6-12.4 8.8-20 0.2-7.8-2.6-15.2-8-20.6C157.2 707.8 120 614 120 512z m716.4-311.2c-5.2-5.6-12.4-8.8-20-8.8-7.2 0-14.2 2.8-19.4 7.8-5.4 5.2-8.6 12.4-8.8 20-0.2 7.8 2.6 15.2 8 20.6 70.6 75.6 108 169.4 108 271.4s-37.2 195.8-108 271.4c-10.6 11.2-10.4 29.4 0.6 40.4 5 5.2 12 8 19.4 8 7.8 0 15.2-3.2 20.4-9.2 80.8-86 123.4-193.4 123.4-310.4 0-117-42.6-224.8-123.6-311.2z" p-id="12613" fill="#666666"></path><path d="M318.4 695.4c-48.2-48.6-74.6-113.2-74.6-181.8 0-70 27.6-135.8 77.6-184.8 11-10.6 11.2-28.4 0.4-39.6-5.2-5.4-12.4-8.4-20-8.4-7.4 0-14.4 2.8-19.6 8C221.4 348.4 188 428.2 188 513.6c0 83.2 32.2 161.8 90.6 221.2 5.4 5.4 12.4 8.4 19.8 8.4s14.4-3 19.6-8.4c5.2-5.2 8.2-12.2 8.2-19.6 0.4-7.4-2.4-14.4-7.8-19.8zM742 289c-5.2-5.2-12-8-19.6-8-7.6 0-14.6 3-20 8.2-10.8 10.8-10.8 28.6 0.2 39.6 50 49 77.4 113 77.4 183 0 68.4-26.2 134.8-74.2 183.6-10.8 10.8-10.6 28.6 0.2 39.4 5.2 5.2 12.4 8.2 19.6 8.2 7.6 0 14.8-3 19.8-8.2C804 675.4 836 595.2 836 512c0-85-33.4-163-94-223z" p-id="12614" fill="#666666"></path><path d="M414.2 366.8c-5.2-5.4-12.4-8.4-20-8.4-7.4 0-14.4 2.8-19.6 8.2-39.6 39-61.6 91.2-61.6 146.6 0 54.2 21 105.4 59 144.2 5.4 5.4 12.4 8.4 20 8.4 7.4 0 14.4-2.8 19.6-8 5.4-5.2 8.4-12.2 8.4-19.8 0-7.6-2.8-14.6-8.2-20-27.6-28-42.8-65.2-42.8-105 0-40.6 16-78.4 44.8-106.8 10.8-10.4 11-28.2 0.4-39.4z m237.2-0.4c-5.2-5.2-12-8-19.6-8-7.6 0-14.6 3-20 8.2-10.8 10.8-10.8 28.6 0.2 39.6 29 28.6 44.8 66.6 44.8 107 0 39.6-15.2 77-43 105-5.2 5.2-8.2 12.4-8 19.8 0 7.4 3 14.4 8.2 19.6 5.2 5.2 12.4 8.2 19.6 8.2 7.4 0 14.6-3 19.8-8.4 38.2-38.8 59.2-90 59.2-144.2 0.2-55.6-21.6-107.6-61.2-146.8zM512 436c-42 0-76 34-76 76s34 76 76 76 76-34 76-76-34.2-76-76-76z" p-id="12615" fill="#666666"></path></svg>